<svg width="167" height="18" viewBox="0 0 167 18" fill="none" xmlns="http://www.w3.org/2000/svg">
<path d="M5.77266 17.216C3.97266 17.216 2.56866 16.718 1.56066 15.722C0.564664 14.726 0.0666642 13.304 0.0666642 11.456V4.4H2.98266V11.348C2.98266 13.604 3.91866 14.732 5.79066 14.732C6.70266 14.732 7.39866 14.462 7.87866 13.922C8.35866 13.37 8.59866 12.512 8.59866 11.348V4.4H11.4787V11.456C11.4787 13.304 10.9747 14.726 9.96666 15.722C8.97066 16.718 7.57266 17.216 5.77266 17.216ZM23.3882 17L20.9582 13.49H20.8142H18.2762V17H15.3602V4.4H20.8142C21.9302 4.4 22.8962 4.586 23.7122 4.958C24.5402 5.33 25.1762 5.858 25.6202 6.542C26.0642 7.226 26.2862 8.036 26.2862 8.972C26.2862 9.908 26.0582 10.718 25.6022 11.402C25.1582 12.074 24.5222 12.59 23.6942 12.95L26.5202 17H23.3882ZM23.3342 8.972C23.3342 8.264 23.1062 7.724 22.6502 7.352C22.1942 6.968 21.5282 6.776 20.6522 6.776H18.2762V11.168H20.6522C21.5282 11.168 22.1942 10.976 22.6502 10.592C23.1062 10.208 23.3342 9.668 23.3342 8.972ZM29.5965 4.4H32.5125V14.624H38.8305V17H29.5965V4.4ZM49.8633 14.3H44.0133L42.8973 17H39.9093L45.5253 4.4H48.4053L54.0393 17H50.9793L49.8633 14.3ZM48.9453 12.086L46.9473 7.262L44.9493 12.086H48.9453ZM61.6809 17.216C59.8809 17.216 58.4769 16.718 57.4689 15.722C56.4729 14.726 55.9749 13.304 55.9749 11.456V4.4H58.8909V11.348C58.8909 13.604 59.8269 14.732 61.6989 14.732C62.6109 14.732 63.3069 14.462 63.7869 13.922C64.2669 13.37 64.5069 12.512 64.5069 11.348V4.4H67.3869V11.456C67.3869 13.304 66.8829 14.726 65.8749 15.722C64.8789 16.718 63.4809 17.216 61.6809 17.216ZM80.5204 10.448C81.2404 10.676 81.8044 11.06 82.2124 11.6C82.6204 12.128 82.8244 12.782 82.8244 13.562C82.8244 14.666 82.3924 15.518 81.5284 16.118C80.6764 16.706 79.4284 17 77.7844 17H71.2684V4.4H77.4244C78.9604 4.4 80.1364 4.694 80.9524 5.282C81.7804 5.87 82.1944 6.668 82.1944 7.676C82.1944 8.288 82.0444 8.834 81.7444 9.314C81.4564 9.794 81.0484 10.172 80.5204 10.448ZM74.1664 6.596V9.566H77.0644C77.7844 9.566 78.3304 9.44 78.7024 9.188C79.0744 8.936 79.2604 8.564 79.2604 8.072C79.2604 7.58 79.0744 7.214 78.7024 6.974C78.3304 6.722 77.7844 6.596 77.0644 6.596H74.1664ZM77.5684 14.804C78.3364 14.804 78.9124 14.678 79.2964 14.426C79.6924 14.174 79.8904 13.784 79.8904 13.256C79.8904 12.212 79.1164 11.69 77.5684 11.69H74.1664V14.804H77.5684ZM90.1721 17.216C89.1761 17.216 88.2101 17.084 87.2741 16.82C86.3501 16.544 85.6061 16.19 85.0421 15.758L86.0321 13.562C86.5721 13.958 87.2141 14.276 87.9581 14.516C88.7021 14.756 89.4461 14.876 90.1901 14.876C91.0181 14.876 91.6301 14.756 92.0261 14.516C92.4221 14.264 92.6201 13.934 92.6201 13.526C92.6201 13.226 92.5001 12.98 92.2601 12.788C92.0321 12.584 91.7321 12.422 91.3601 12.302C91.0001 12.182 90.5081 12.05 89.8841 11.906C88.9241 11.678 88.1381 11.45 87.5261 11.222C86.9141 10.994 86.3861 10.628 85.9421 10.124C85.5101 9.62 85.2941 8.948 85.2941 8.108C85.2941 7.376 85.4921 6.716 85.8881 6.128C86.2841 5.528 86.8781 5.054 87.6701 4.706C88.4741 4.358 89.4521 4.184 90.6041 4.184C91.4081 4.184 92.1941 4.28 92.9621 4.472C93.7301 4.664 94.4021 4.94 94.9781 5.3L94.0781 7.514C92.9141 6.854 91.7501 6.524 90.5861 6.524C89.7701 6.524 89.1641 6.656 88.7681 6.92C88.3841 7.184 88.1921 7.532 88.1921 7.964C88.1921 8.396 88.4141 8.72 88.8581 8.936C89.3141 9.14 90.0041 9.344 90.9281 9.548C91.8881 9.776 92.6741 10.004 93.2861 10.232C93.8981 10.46 94.4201 10.82 94.8521 11.312C95.2961 11.804 95.5181 12.47 95.5181 13.31C95.5181 14.03 95.3141 14.69 94.9061 15.29C94.5101 15.878 93.9101 16.346 93.1061 16.694C92.3021 17.042 91.3241 17.216 90.1721 17.216ZM107.025 10.502H109.689V15.614C109.005 16.13 108.213 16.526 107.313 16.802C106.413 17.078 105.507 17.216 104.595 17.216C103.287 17.216 102.111 16.94 101.067 16.388C100.023 15.824 99.2006 15.05 98.6006 14.066C98.0126 13.07 97.7186 11.948 97.7186 10.7C97.7186 9.452 98.0126 8.336 98.6006 7.352C99.2006 6.356 100.029 5.582 101.085 5.03C102.141 4.466 103.329 4.184 104.649 4.184C105.753 4.184 106.755 4.37 107.655 4.742C108.555 5.114 109.311 5.654 109.923 6.362L108.051 8.09C107.151 7.142 106.065 6.668 104.793 6.668C103.989 6.668 103.275 6.836 102.651 7.172C102.027 7.508 101.541 7.982 101.193 8.594C100.845 9.206 100.671 9.908 100.671 10.7C100.671 11.48 100.845 12.176 101.193 12.788C101.541 13.4 102.021 13.88 102.633 14.228C103.257 14.564 103.965 14.732 104.757 14.732C105.597 14.732 106.353 14.552 107.025 14.192V10.502ZM113.397 4.4H116.313V14.624H122.631V17H113.397V4.4ZM130.7 17.216C128.9 17.216 127.496 16.718 126.488 15.722C125.492 14.726 124.994 13.304 124.994 11.456V4.4H127.91V11.348C127.91 13.604 128.846 14.732 130.718 14.732C131.63 14.732 132.326 14.462 132.806 13.922C133.286 13.37 133.526 12.512 133.526 11.348V4.4H136.406V11.456C136.406 13.304 135.902 14.726 134.894 15.722C133.898 16.718 132.5 17.216 130.7 17.216ZM128.9 3.284C128.54 3.284 128.24 3.17 128 2.942C127.76 2.702 127.64 2.402 127.64 2.042C127.64 1.682 127.76 1.388 128 1.16C128.24 0.919999 128.54 0.799999 128.9 0.799999C129.26 0.799999 129.554 0.919999 129.782 1.16C130.022 1.388 130.142 1.682 130.142 2.042C130.142 2.402 130.022 2.702 129.782 2.942C129.554 3.17 129.26 3.284 128.9 3.284ZM132.536 3.284C132.176 3.284 131.876 3.17 131.636 2.942C131.408 2.702 131.294 2.402 131.294 2.042C131.294 1.682 131.408 1.388 131.636 1.16C131.876 0.919999 132.176 0.799999 132.536 0.799999C132.896 0.799999 133.196 0.919999 133.436 1.16C133.676 1.388 133.796 1.682 133.796 2.042C133.796 2.402 133.676 2.702 133.436 2.942C133.196 3.17 132.896 3.284 132.536 3.284ZM146.318 17.216C145.034 17.216 143.87 16.94 142.826 16.388C141.794 15.824 140.978 15.05 140.378 14.066C139.79 13.07 139.496 11.948 139.496 10.7C139.496 9.452 139.79 8.336 140.378 7.352C140.978 6.356 141.794 5.582 142.826 5.03C143.87 4.466 145.04 4.184 146.336 4.184C147.428 4.184 148.412 4.376 149.288 4.76C150.176 5.144 150.92 5.696 151.52 6.416L149.648 8.144C148.796 7.16 147.74 6.668 146.48 6.668C145.7 6.668 145.004 6.842 144.392 7.19C143.78 7.526 143.3 8 142.952 8.612C142.616 9.224 142.448 9.92 142.448 10.7C142.448 11.48 142.616 12.176 142.952 12.788C143.3 13.4 143.78 13.88 144.392 14.228C145.004 14.564 145.7 14.732 146.48 14.732C147.74 14.732 148.796 14.234 149.648 13.238L151.52 14.966C150.92 15.698 150.176 16.256 149.288 16.64C148.4 17.024 147.41 17.216 146.318 17.216ZM159.079 12.05L157.387 13.814V17H154.489V4.4H157.387V10.286L162.967 4.4H166.207L160.987 10.016L166.513 17H163.111L159.079 12.05Z" fill="white"/>
</svg>
